<svg width="28" height="27" viewBox="0 0 28 27" fill="none" xmlns="http://www.w3.org/2000/svg">
<path d="M13.0884 24.3033H3.58049C2.30037 24.3033 1.25 23.2639 1.25 21.9728V8.02269C1.25 6.74257 2.28942 5.6922 3.58049 5.6922H24.1719C25.4521 5.6922 26.5024 6.73162 26.5024 8.02269V21.9728C26.5024 23.2529 25.463 24.3033 24.1719 24.3033L22.6292 24.3142" stroke="#666666" stroke-miterlimit="10" stroke-linecap="round" stroke-linejoin="round"/>
<path d="M10.014 3.50387V3.09904C10.014 2.08151 10.8892 1.24997 11.9615 1.24997H15.7691C16.8523 1.24997 17.7166 2.08151 17.7166 3.09904V3.50387" stroke="#666666" stroke-miterlimit="10" stroke-linecap="round" stroke-linejoin="round"/>
<path d="M22.4323 16.36C22.4323 18.8765 17.8479 25.8132 17.8479 25.8132C17.8479 25.8132 13.2635 18.8874 13.2635 16.36C13.2635 13.8435 15.3204 11.7975 17.8479 11.7975C20.3753 11.8084 22.4323 13.8435 22.4323 16.36Z" stroke="#666666" stroke-miterlimit="10" stroke-linecap="round" stroke-linejoin="round"/>
<path d="M17.8479 17.1585C17.2242 17.1585 16.71 16.6552 16.71 16.0316C16.71 15.4079 17.2133 14.9046 17.8479 14.9046C18.4715 14.9046 18.9857 15.4079 18.9857 16.0316C18.9748 16.6552 18.4715 17.1585 17.8479 17.1585Z" stroke="#666666" stroke-miterlimit="10" stroke-linecap="round" stroke-linejoin="round"/>
</svg>
